# Blender v2.92.0 OBJ File: 'alas pagar.blend'
# www.blender.org
mtllib alas pagar.mtl
o Cube
v 10.975845 0.406739 -10.957668
v 11.500000 -0.035000 -11.500000
v 10.975845 0.406739 10.982279
v 11.500000 -0.035000 11.500000
v -10.964102 0.406739 -10.957668
v -11.500000 -0.035000 -11.500000
v -10.964102 0.406739 10.982279
v -11.500000 -0.035000 11.500000
v 11.500000 0.035000 11.500000
v -11.500000 0.035000 11.500000
v 11.500000 0.035000 -11.500000
v -11.500000 0.035000 -11.500000
vt 0.630761 0.505761
vt 0.869239 0.505761
vt 0.869239 0.744239
vt 0.630761 0.744239
vt 0.375000 0.750000
vt 0.625000 0.750000
vt 0.625000 1.000000
vt 0.375000 1.000000
vt 0.375000 0.000000
vt 0.625000 0.000000
vt 0.625000 0.250000
vt 0.375000 0.250000
vt 0.125000 0.500000
vt 0.375000 0.500000
vt 0.125000 0.750000
vt 0.625000 0.500000
vt 0.875000 0.750000
vt 0.875000 0.500000
vn 0.0000 1.0000 0.0000
vn 0.0000 0.0000 1.0000
vn -1.0000 0.0000 0.0000
vn 0.0000 -1.0000 0.0000
vn 1.0000 0.0000 0.0000
vn 0.0000 0.0000 -1.0000
vn 0.0000 0.8123 0.5832
vn 0.5785 0.8157 0.0000
vn -0.5700 0.8217 0.0000
vn 0.0000 0.8248 -0.5654
usemtl Material
s off
f 1/1/1 5/2/1 7/3/1 3/4/1
f 4/5/2 9/6/2 10/7/2 8/8/2
f 8/9/3 10/10/3 12/11/3 6/12/3
f 6/13/4 2/14/4 4/5/4 8/15/4
f 2/14/5 11/16/5 9/6/5 4/5/5
f 6/12/6 12/11/6 11/16/6 2/14/6
f 3/4/7 7/3/7 10/17/7 9/6/7
f 1/1/8 3/4/8 9/6/8 11/16/8
f 7/3/9 5/2/9 12/18/9 10/17/9
f 5/2/10 1/1/10 11/16/10 12/18/10
